<?xml version='1.0' encoding='UTF-8' standalone='no'?>
<!-- Created with Fritzing (http://www.fritzing.org/) -->
<svg xmlns:svg='http://www.w3.org/2000/svg' xmlns='http://www.w3.org/2000/svg' version='1.2' baseProfile='tiny' x='0in' y='0in' width='3.60904in' height='1.9746in' viewBox='0 0 259.851 142.171' >
<g partID='854114490'><g transform='translate(201.9,76.1758)' ><g transform='matrix(0,1,-1,0,0,0)'  ><g id="schematic">
<rect stroke-linecap="round" height="56.7" stroke-width="0.9" width="35.1" fill="#FFFFFF" class="interior rect" y="14.85" stroke="#000000" x="14.85"/>
<line stroke-linecap="round" y1="43.2" x2="64.4499" y2="43.2" stroke-width="0.699999" id="connector2pin" fill="none" class="pin" stroke="#787878" x1="50.0499"/>
<text font-family="'Droid Sans'" stroke-width="0" text-anchor="middle" font-size="2.5" fill="#8c8c8c" class="text" stroke="none" y="42.15" x="57.2499">3</text>
<text font-family="'Droid Sans'" stroke-width="0" text-anchor="end" font-size="3.49999" fill="#8c8c8c" class="text" stroke="none" y="43.8999" x="48.6499">Pin 3</text>
<g height="0.699999" stroke-width="0" id="connector2terminal" width="0.699999" fill="none" class="terminal" y="42.8499" stroke="none" x="64.4499"/>
<line stroke-linecap="round" y1="36" x2="14.75" y2="36" stroke-width="0.699999" id="connector5pin" fill="none" class="pin" stroke="#787878" x1="0.349999"/>
<text font-family="'Droid Sans'" stroke-width="0" text-anchor="middle" font-size="2.5" fill="#8c8c8c" class="text" stroke="none" y="34.95" x="7.54999">7</text>
<text font-family="'Droid Sans'" stroke-width="0" text-anchor="start" font-size="3.49999" fill="#8c8c8c" class="text" stroke="none" y="36.6999" x="16.15">Pin 7</text>
<g height="0.699999" stroke-width="0" id="connector5terminal" width="0.699999" fill="none" class="terminal" y="35.6499" stroke="none" x="-0.349999"/>
<line stroke-linecap="round" y1="43.2" x2="14.75" y2="43.2" stroke-width="0.699999" id="connector6pin" fill="none" class="pin" stroke="#787878" x1="0.349999"/>
<text font-family="'Droid Sans'" stroke-width="0" text-anchor="middle" font-size="2.5" fill="#8c8c8c" class="text" stroke="none" y="42.15" x="7.54999">6</text>
<text font-family="'Droid Sans'" stroke-width="0" text-anchor="start" font-size="3.49999" fill="#8c8c8c" class="text" stroke="none" y="43.8999" x="16.15">Pin 6</text>
<g height="0.699999" stroke-width="0" id="connector6terminal" width="0.699999" fill="none" class="terminal" y="42.8499" stroke="none" x="-0.349999"/>
<line stroke-linecap="round" y1="50.4" x2="14.75" y2="50.4" stroke-width="0.699999" id="connector1pin" fill="none" class="pin" stroke="#787878" x1="0.349999"/>
<text font-family="'Droid Sans'" stroke-width="0" text-anchor="middle" font-size="2.5" fill="#8c8c8c" class="text" stroke="none" y="49.35" x="7.54999">2</text>
<text font-family="'Droid Sans'" stroke-width="0" text-anchor="start" font-size="3.49999" fill="#8c8c8c" class="text" stroke="none" y="51.0999" x="16.15">Pin 2</text>
<g height="0.699999" stroke-width="0" id="connector1terminal" width="0.699999" fill="none" class="terminal" y="50.0499" stroke="none" x="-0.349999"/>
<line stroke-linecap="round" y1="71.6499" x2="28.8" y2="86.0499" stroke-width="0.699999" id="connector0pin" fill="none" class="pin" stroke="#787878" x1="28.8"/>
<g transform="matrix(1, 0, 0, 1, 27.75, 78.8499)">
<g>
<g transform="rotate(270)">
<g>
<text font-family="'Droid Sans'" stroke-width="0" text-anchor="middle" font-size="2.5" fill="#8c8c8c" class="text" stroke="none" y="0" x="0">1</text>
</g>
</g>
</g>
</g>
<g transform="matrix(1, 0, 0, 1, 29.4999, 70.2499)">
<g>
<g transform="rotate(270)">
<g>
<text font-family="'Droid Sans'" stroke-width="0" text-anchor="start" font-size="3.49999" fill="#8c8c8c" class="text" stroke="none" y="0" x="0">Pin 1</text>
</g>
</g>
</g>
</g>
<g height="0.699999" stroke-width="0" id="connector0terminal" width="0.699999" fill="none" class="terminal" y="86.0499" stroke="none" x="28.4499"/>
<line stroke-linecap="round" y1="71.6499" x2="36" y2="86.0499" stroke-width="0.699999" id="connector4pin" fill="none" class="pin" stroke="#787878" x1="36"/>
<g transform="matrix(1, 0, 0, 1, 34.95, 78.8499)">
<g>
<g transform="rotate(270)">
<g>
<text font-family="'Droid Sans'" stroke-width="0" text-anchor="middle" font-size="2.5" fill="#8c8c8c" class="text" stroke="none" y="0" x="0">5</text>
</g>
</g>
</g>
</g>
<g transform="matrix(1, 0, 0, 1, 36.6999, 70.2499)">
<g>
<g transform="rotate(270)">
<g>
<text font-family="'Droid Sans'" stroke-width="0" text-anchor="start" font-size="3.49999" fill="#8c8c8c" class="text" stroke="none" y="0" x="0">Pin 5</text>
</g>
</g>
</g>
</g>
<g height="0.699999" stroke-width="0" id="connector4terminal" width="0.699999" fill="none" class="terminal" y="86.0499" stroke="none" x="35.6499"/>
<line stroke-linecap="round" y1="0.349999" x2="28.8" y2="14.75" stroke-width="0.699999" id="connector7pin" fill="none" class="pin" stroke="#787878" x1="28.8"/>
<g transform="matrix(1, 0, 0, 1, 27.75, 7.54999)">
<g>
<g transform="rotate(270)">
<g>
<text font-family="'Droid Sans'" stroke-width="0" text-anchor="middle" font-size="2.5" fill="#8c8c8c" class="text" stroke="none" y="0" x="0">8</text>
</g>
</g>
</g>
</g>
<g transform="matrix(1, 0, 0, 1, 29.4999, 16.15)">
<g>
<g transform="rotate(270)">
<g>
<text font-family="'Droid Sans'" stroke-width="0" text-anchor="end" font-size="3.49999" fill="#8c8c8c" class="text" stroke="none" y="0" x="0">Pin 8</text>
</g>
</g>
</g>
</g>
<g height="0.699999" stroke-width="0" id="connector7terminal" width="0.699999" fill="none" class="terminal" y="-0.349999" stroke="none" x="28.4499"/>
<line stroke-linecap="round" y1="0.349999" x2="36" y2="14.75" stroke-width="0.699999" id="connector3pin" fill="none" class="pin" stroke="#787878" x1="36"/>
<g transform="matrix(1, 0, 0, 1, 34.95, 7.54999)">
<g>
<g transform="rotate(270)">
<g>
<text font-family="'Droid Sans'" stroke-width="0" text-anchor="middle" font-size="2.5" fill="#8c8c8c" class="text" stroke="none" y="0" x="0">4</text>
</g>
</g>
</g>
</g>
<g transform="matrix(1, 0, 0, 1, 36.6999, 16.15)">
<g>
<g transform="rotate(270)">
<g>
<text font-family="'Droid Sans'" stroke-width="0" text-anchor="end" font-size="3.49999" fill="#8c8c8c" class="text" stroke="none" y="0" x="0">Pin 4</text>
</g>
</g>
</g>
</g>
<g height="0.699999" stroke-width="0" id="connector3terminal" width="0.699999" fill="none" class="terminal" y="-0.349999" stroke="none" x="35.6499"/>
<text font-family="'Droid Sans'" id="label" stroke-width="0" text-anchor="middle" font-size="4.25001" fill="#000000" class="text" stroke="none" y="39.1164" x="32.8501">555</text>
<text font-family="'Droid Sans'" id="label" stroke-width="0" text-anchor="middle" font-size="4.25001" fill="#000000" class="text" stroke="none" y="43.6501" x="32.8501">Timer</text>
</g>
</g></g></g><g partID='854114660'><g transform='translate(173.451,22.752)' ><g transform='matrix(-1,0,0,-1,0,0)'  ><g id="schematic" xmlns="http://www.w3.org/2000/svg">
<line stroke-linecap="round" y1="0.576" x2="11.15" y2="22.176" stroke-width="1.152" xmlns="http://www.w3.org/2000/svg" class="other" stroke="#000000" x1="11.15"/>
<line stroke-linecap="round" y1="7.776" x2="14.75" y2="14.976" stroke-width="1.152" xmlns="http://www.w3.org/2000/svg" class="other" stroke="#000000" x1="14.75"/>
<line stroke-linecap="round" y1="0.576" x2="18.3501" y2="22.176" stroke-width="1.152" xmlns="http://www.w3.org/2000/svg" class="other" stroke="#000000" x1="18.3501"/>
<line stroke-linecap="round" y1="7.776" x2="21.9501" y2="14.976" stroke-width="1.152" xmlns="http://www.w3.org/2000/svg" class="other" stroke="#000000" x1="21.9501"/>
<line stroke-linecap="round" y1="11.376" x2="10.43" y2="11.376" stroke-width="0.432002" xmlns="http://www.w3.org/2000/svg" class="other" stroke="#000000" x1="7.55002"/>
<line stroke-linecap="round" connectorname="-" y1="11.376" x2="21.9501" y2="11.376" id="connector0pin" stroke-width="0.700001" xmlns="http://www.w3.org/2000/svg" class="pin" stroke="#787878" x1="29.1502"/>
<g height="0.000283465" id="connector0terminal" stroke-width="0" width="0.000283466" xmlns="http://www.w3.org/2000/svg" fill="none" class="terminal" y="11.376" stroke="none" x="29.1502"/>
<text font-family="'Droid Sans'" stroke-width="0" text-anchor="middle" font-size="2.50001" xmlns="http://www.w3.org/2000/svg" fill="#8c8c8c" class="text" stroke="none" y="10.326" x="25.5501">1</text>
<line stroke-linecap="round" connectorname="+" y1="11.376" x2="7.55002" y2="11.376" id="connector1pin" stroke-width="0.700001" xmlns="http://www.w3.org/2000/svg" class="pin" stroke="#787878" x1="0.350001"/>
<g height="0.000283465" id="connector1terminal" stroke-width="0" width="0.000283466" xmlns="http://www.w3.org/2000/svg" fill="none" class="terminal" y="11.376" stroke="none" x="0.350001"/>
<text font-family="'Droid Sans'" stroke-width="0" text-anchor="middle" font-size="2.50001" xmlns="http://www.w3.org/2000/svg" fill="#8c8c8c" class="text" stroke="none" y="10.326" x="3.95001">2</text>
</g>
</g></g></g><g partID='854114800'><g transform='translate(61.8504,36.936)' ><g transform='matrix(0,-1,-1,0,0,0)'  ><g id="schematic">
<line stroke-linecap="round" y1="7.54999" x2="14.76" y2="7.54999" stroke-width="0.72" class="other" stroke="#000000" x1="0.36"/>
<line stroke-linecap="round" y1="10.43" x2="7.56" y2="14.75" stroke-width="0.432" class="other" stroke="#000000" x1="7.56"/>
<path stroke-width="0.72" fill="none" d="M7.56,10.3846A11.4922,11.4922,0,0,1,14.616,12.806" class="other" stroke="#000000"/>
<path stroke-width="0.72" fill="none" d="M0.567213,12.7952A11.5191,11.5191,0,0,1,7.56,10.4303" class="other" stroke="#000000"/>
<rect stroke-linecap="round" height="0.36" stroke-width="0" width="2.52" fill="#000000" class="other" y="5.29645" stroke="none" x="1.17354"/>
<rect stroke-linecap="round" height="2.52" stroke-width="0" width="0.36" fill="#000000" class="other" y="4.21645" stroke="none" x="2.25354"/>
<line stroke-linecap="round" connectorname="+" y1="0.349999" x2="7.56" y2="7.54999" id="connector1pin" stroke-width="0.699999" class="pin" stroke="#787878" x1="7.56"/>
<g height="0.000283465" id="connector1terminal" stroke-width="0" width="0.000283465" fill="none" class="terminal" y="0.349999" stroke="none" x="7.56"/>
<g transform="matrix(1, 0, 0, 1, 6.50999, 3.94999)">
<g>
<g transform="rotate(270)">
<g>
<text font-family="'Droid Sans'" stroke-width="0" text-anchor="middle" font-size="2.5" fill="#8c8c8c" class="text" stroke="none" y="0" x="0">2</text>
</g>
</g>
</g>
</g>
<line stroke-linecap="round" connectorname="-" y1="21.95" x2="7.56" y2="14.75" id="connector0pin" stroke-width="0.699999" class="pin" stroke="#787878" x1="7.56"/>
<g height="0.000283465" id="connector0terminal" stroke-width="0" width="0.000283465" fill="none" class="terminal" y="21.95" stroke="none" x="7.56"/>
<g transform="matrix(1, 0, 0, 1, 6.50999, 18.35)">
<g>
<g transform="rotate(270)">
<g>
<text font-family="'Droid Sans'" stroke-width="0" text-anchor="middle" font-size="2.5" fill="#8c8c8c" class="text" stroke="none" y="0" x="0">1</text>
</g>
</g>
</g>
</g>
</g>
</g></g></g><g partID='854115020'><g transform='translate(40.8,119.592)' ><g transform='matrix(1,0,0,-1,0,0)'  ><g id="schematic">
<g>
<path d="M13.5,14.966L9.9,14.966c-0.193,0,-0.35,-0.156,-0.35,-0.35s0.156,-0.35,0.35,-0.35L13.5,14.266c0.193,0,0.35,0.156,0.35,0.35S13.694,14.966,13.5,14.966z"/>
</g>
<g>
<path d="M9.9,14.966L6.3,14.966c-0.193,0,-0.35,-0.156,-0.35,-0.35s0.157,-0.35,0.35,-0.35l3.6,0c0.193,0,0.35,0.156,0.35,0.35S10.093,14.966,9.9,14.966z"/>
</g>
<g>
<polygon points="9.9,14.616,6.3,7.416,9.9,7.416,13.5,7.416" fill="#FFFFFF"/>
<path d="M9.9,15.398L5.734,7.066l8.333,0L9.9,15.398zM6.866,7.766L9.9,13.834l3.034,-6.068L6.866,7.766z"/>
</g>
<g>
<path d="M9.9,14.841c-0.124,0,-0.225,-0.101,-0.225,-0.225l0,-7.2c0,-0.124,0.101,-0.225,0.225,-0.225s0.225,0.101,0.225,0.225l0,7.2C10.124,14.74,10.024,14.841,9.9,14.841z"/>
</g>
<g>
<path d="M1.8,12.141c-0.058,0,-0.115,-0.021,-0.159,-0.065c-0.088,-0.088,-0.088,-0.23,0,-0.318l2.34,-2.341c0.088,-0.088,0.23,-0.088,0.318,0s0.088,0.23,0,0.318l-2.34,2.341C1.915,12.12,1.858,12.141,1.8,12.141z"/>
</g>
<g>
<path d="M2.16,15.381c-0.058,0,-0.115,-0.021,-0.159,-0.065c-0.088,-0.088,-0.088,-0.23,0,-0.318l2.34,-2.34c0.088,-0.088,0.23,-0.088,0.318,0s0.088,0.23,0,0.318l-2.34,2.34C2.276,15.359,2.218,15.381,2.16,15.381z"/>
</g>
<g id="connector0pin">
<path fill="#787878" d="M9.9,22.166c-0.193,0,-0.35,-0.156,-0.35,-0.35l0,-7.2c0,-0.193,0.156,-0.35,0.35,-0.35s0.35,0.156,0.35,0.35l0,7.2C10.249,22.01,10.093,22.166,9.9,22.166z"/>
</g>
<g id="connector0terminal">
<rect height="0.001" width="0.001" fill="none" y="21.816" x="9.9"/>
</g>
<g transform="matrix(1, 0, 0, 1, 3.429, 6.4262)">
<g>
<g transform="rotate(270)">
<g>
<g enable-background="new    ">
<path fill="#787878" d="M-11.647,5.54l-0.891,0L-12.538,5.388l0.342,-0.372c0.049,-0.053,0.093,-0.101,0.131,-0.145s0.071,-0.086,0.099,-0.128c0.026,-0.042,0.047,-0.084,0.062,-0.125c0.015,-0.043,0.021,-0.088,0.021,-0.138c0,-0.038,-0.005,-0.072,-0.017,-0.102s-0.027,-0.054,-0.047,-0.075c-0.021,-0.02,-0.045,-0.035,-0.073,-0.046s-0.06,-0.016,-0.094,-0.016c-0.062,0,-0.118,0.013,-0.167,0.038c-0.051,0.024,-0.098,0.057,-0.143,0.096l-0.1,-0.116c0.025,-0.023,0.055,-0.046,0.084,-0.065c0.029,-0.021,0.063,-0.039,0.097,-0.054s0.071,-0.026,0.109,-0.036c0.038,-0.008,0.079,-0.013,0.121,-0.013c0.063,0,0.119,0.009,0.169,0.026c0.051,0.018,0.094,0.043,0.129,0.076c0.035,0.032,0.063,0.072,0.082,0.119c0.019,0.048,0.028,0.101,0.028,0.16c0,0.056,-0.009,0.108,-0.026,0.158c-0.017,0.05,-0.041,0.1,-0.07,0.148c-0.031,0.048,-0.066,0.097,-0.109,0.146c-0.041,0.049,-0.087,0.1,-0.136,0.152L-12.32,5.37l0,0.008l0.673,0L-11.647,5.54z"/>
</g>
</g>
</g>
</g>
</g>
<g id="connector1pin">
<path fill="#787878" d="M9.9,7.766c-0.193,0,-0.35,-0.157,-0.35,-0.35l0,-7.2c0,-0.193,0.156,-0.35,0.35,-0.35s0.35,0.157,0.35,0.35l0,7.2C10.249,7.609,10.093,7.766,9.9,7.766z"/>
</g>
<g id="connector1terminal">
<polygon points="9.9,0.216,9.901,0.216,9.901,0.216" fill="none"/>
</g>
<g transform="matrix(1, 0, 0, 1, 3.429, 1.3462)">
<g>
<g transform="rotate(270)">
<g>
<g enable-background="new    ">
<path fill="#787878" d="M-2.616,5.54l-0.172,0L-2.788,4.648c0,-0.028,0,-0.058,0,-0.09s0.001,-0.063,0.002,-0.095c0.001,-0.032,0.002,-0.063,0.003,-0.092c0.001,-0.028,0.002,-0.054,0.002,-0.076c-0.011,0.012,-0.021,0.021,-0.029,0.03s-0.017,0.017,-0.026,0.024s-0.018,0.016,-0.028,0.025c-0.01,0.008,-0.021,0.019,-0.035,0.03l-0.145,0.118l-0.094,-0.12l0.374,-0.292l0.146,0L-2.618,5.54z"/>
</g>
</g>
</g>
</g>
</g>
<g>
<path d="M0.18,13.536l1.08,-2.521l1.44,1.438L0.18,13.536z"/>
</g>
<g>
<path d="M0.54,16.776l1.08,-2.521l1.438,1.438L0.54,16.776z"/>
</g>
</g>
</g></g></g><g partID='854115640'><g transform='translate(233.797,3.82552)' ><g transform='matrix(0,1,-1,0,0,0)'  ><g id="schematic" xmlns="http://www.w3.org/2000/svg">
<line stroke-linecap="round" y1="3.096" x2="8.63003" y2="0.216" stroke-width="0.432002" xmlns="http://www.w3.org/2000/svg" class="other" stroke="#000000" x1="7.55002"/>
<line stroke-linecap="round" y1="0.216" x2="10.43" y2="5.976" stroke-width="0.432002" xmlns="http://www.w3.org/2000/svg" class="other" stroke="#000000" x1="8.63003"/>
<line stroke-linecap="round" y1="5.976" x2="12.23" y2="0.216" stroke-width="0.432002" xmlns="http://www.w3.org/2000/svg" class="other" stroke="#000000" x1="10.43"/>
<line stroke-linecap="round" y1="0.216" x2="14.03" y2="5.976" stroke-width="0.432002" xmlns="http://www.w3.org/2000/svg" class="other" stroke="#000000" x1="12.23"/>
<line stroke-linecap="round" y1="5.976" x2="15.8301" y2="0.216" stroke-width="0.432002" xmlns="http://www.w3.org/2000/svg" class="other" stroke="#000000" x1="14.03"/>
<line stroke-linecap="round" y1="0.216" x2="17.6301" y2="5.976" stroke-width="0.432002" xmlns="http://www.w3.org/2000/svg" class="other" stroke="#000000" x1="15.8301"/>
<line stroke-linecap="round" y1="5.976" x2="19.4301" y2="0.216" stroke-width="0.432002" xmlns="http://www.w3.org/2000/svg" class="other" stroke="#000000" x1="17.6301"/>
<line stroke-linecap="round" y1="0.216" x2="21.2301" y2="5.976" stroke-width="0.432002" xmlns="http://www.w3.org/2000/svg" class="other" stroke="#000000" x1="19.4301"/>
<line stroke-linecap="round" y1="5.976" x2="21.9501" y2="3.096" stroke-width="0.432002" xmlns="http://www.w3.org/2000/svg" class="other" stroke="#000000" x1="21.2301"/>
<line stroke-linecap="round" connectorname="2" y1="3.096" x2="21.9501" y2="3.096" id="connector1pin" stroke-width="0.700001" xmlns="http://www.w3.org/2000/svg" class="pin" stroke="#787878" x1="29.1502"/>
<g height="0.000283465" id="connector1terminal" stroke-width="0" width="0.000283466" xmlns="http://www.w3.org/2000/svg" fill="none" class="terminal" y="3.096" stroke="none" x="29.1502"/>
<text font-family="'Droid Sans'" stroke-width="0" text-anchor="middle" font-size="2.50001" xmlns="http://www.w3.org/2000/svg" fill="#8c8c8c" class="text" stroke="none" y="2.046" x="25.5501">2</text>
<line stroke-linecap="round" connectorname="1" y1="3.096" x2="7.55002" y2="3.096" id="connector0pin" stroke-width="0.700001" xmlns="http://www.w3.org/2000/svg" class="pin" stroke="#787878" x1="0.350001"/>
<g height="0.000283465" id="connector0terminal" stroke-width="0" width="0.000283466" xmlns="http://www.w3.org/2000/svg" fill="none" class="terminal" y="3.096" stroke="none" x="0.350001"/>
<text font-family="'Droid Sans'" stroke-width="0" text-anchor="middle" font-size="2.50001" xmlns="http://www.w3.org/2000/svg" fill="#8c8c8c" class="text" stroke="none" y="2.046" x="3.95001">1</text>
</g>
</g></g></g><g partID='854138270'><g transform='translate(76.4047,47.7255)' ><g transform='matrix(0,-1,1,0,0,0)'  ><g id="schematic" xmlns="http://www.w3.org/2000/svg">
<line stroke-linecap="round" y1="3.096" x2="8.63003" y2="0.216" stroke-width="0.432002" xmlns="http://www.w3.org/2000/svg" class="other" stroke="#000000" x1="7.55002"/>
<line stroke-linecap="round" y1="0.216" x2="10.43" y2="5.976" stroke-width="0.432002" xmlns="http://www.w3.org/2000/svg" class="other" stroke="#000000" x1="8.63003"/>
<line stroke-linecap="round" y1="5.976" x2="12.23" y2="0.216" stroke-width="0.432002" xmlns="http://www.w3.org/2000/svg" class="other" stroke="#000000" x1="10.43"/>
<line stroke-linecap="round" y1="0.216" x2="14.03" y2="5.976" stroke-width="0.432002" xmlns="http://www.w3.org/2000/svg" class="other" stroke="#000000" x1="12.23"/>
<line stroke-linecap="round" y1="5.976" x2="15.8301" y2="0.216" stroke-width="0.432002" xmlns="http://www.w3.org/2000/svg" class="other" stroke="#000000" x1="14.03"/>
<line stroke-linecap="round" y1="0.216" x2="17.6301" y2="5.976" stroke-width="0.432002" xmlns="http://www.w3.org/2000/svg" class="other" stroke="#000000" x1="15.8301"/>
<line stroke-linecap="round" y1="5.976" x2="19.4301" y2="0.216" stroke-width="0.432002" xmlns="http://www.w3.org/2000/svg" class="other" stroke="#000000" x1="17.6301"/>
<line stroke-linecap="round" y1="0.216" x2="21.2301" y2="5.976" stroke-width="0.432002" xmlns="http://www.w3.org/2000/svg" class="other" stroke="#000000" x1="19.4301"/>
<line stroke-linecap="round" y1="5.976" x2="21.9501" y2="3.096" stroke-width="0.432002" xmlns="http://www.w3.org/2000/svg" class="other" stroke="#000000" x1="21.2301"/>
<line stroke-linecap="round" connectorname="2" y1="3.096" x2="21.9501" y2="3.096" id="connector1pin" stroke-width="0.700001" xmlns="http://www.w3.org/2000/svg" class="pin" stroke="#787878" x1="29.1502"/>
<g height="0.000283465" id="connector1terminal" stroke-width="0" width="0.000283466" xmlns="http://www.w3.org/2000/svg" fill="none" class="terminal" y="3.096" stroke="none" x="29.1502"/>
<text font-family="'Droid Sans'" stroke-width="0" text-anchor="middle" font-size="2.50001" xmlns="http://www.w3.org/2000/svg" fill="#8c8c8c" class="text" stroke="none" y="2.046" x="25.5501">2</text>
<line stroke-linecap="round" connectorname="1" y1="3.096" x2="7.55002" y2="3.096" id="connector0pin" stroke-width="0.700001" xmlns="http://www.w3.org/2000/svg" class="pin" stroke="#787878" x1="0.350001"/>
<g height="0.000283465" id="connector0terminal" stroke-width="0" width="0.000283466" xmlns="http://www.w3.org/2000/svg" fill="none" class="terminal" y="3.096" stroke="none" x="0.350001"/>
<text font-family="'Droid Sans'" stroke-width="0" text-anchor="middle" font-size="2.50001" xmlns="http://www.w3.org/2000/svg" fill="#8c8c8c" class="text" stroke="none" y="2.046" x="3.95001">1</text>
</g>
</g></g></g><g partID='854175200'><line stroke-linecap='round' stroke='#ff7300' x1='61.5002' y1='29.3758' x2='79.5008' y2='47.3754' stroke-width='0.4' /></g><g partID='854173670'><line stroke-linecap='round' stroke='#404040' x1='50.7005' y1='119.376' x2='65.1005' y2='140.976' stroke-width='0.699998' /></g><g partID='854173690'><line stroke-linecap='round' stroke='#404040' x1='65.1005' y1='140.976' x2='158.7' y2='140.976' stroke-width='0.699998' /></g><g partID='854173790'><line stroke-linecap='round' stroke='#404040' x1='173.101' y1='11.3759' x2='173.101' y2='4.37712' stroke-width='0.699998' /></g><g partID='854173810'><line stroke-linecap='round' stroke='#404040' x1='173.101' y1='4.37712' x2='219.274' y2='4.37712' stroke-width='0.699998' /></g><circle  fill="black" cx="219.274" cy="4.37712" r="1.44" stroke-width="0" stroke="none" /><g partID='854173850'><line stroke-linecap='round' stroke='#404040' x1='219.274' y1='4.37712' x2='230.701' y2='4.17566' stroke-width='0.699998' /></g><g partID='854173930'><line stroke-linecap='round' stroke='#404040' x1='201.9' y1='104.976' x2='204.874' y2='105.177' stroke-width='0.699998' /></g><g partID='854173950'><line stroke-linecap='round' stroke='#404040' x1='204.874' y1='105.177' x2='204.874' y2='33.1771' stroke-width='0.699998' /></g><g partID='854173970'><line stroke-linecap='round' stroke='#404040' x1='204.874' y1='33.1771' x2='204.874' y2='4.37712' stroke-width='0.699998' /></g><g partID='854173990'><line stroke-linecap='round' stroke='#404040' x1='204.874' y1='4.37712' x2='219.274' y2='4.37712' stroke-width='0.699998' /></g><g partID='854174030'><line stroke-linecap='round' stroke='#404040' x1='158.7' y1='76.1758' x2='161.674' y2='76.3771' stroke-width='0.699998' /></g><circle  fill="black" cx="158.7" cy="76.1758" r="1.44" stroke-width="0" stroke="none" /><g partID='854174050'><line stroke-linecap='round' stroke='#404040' x1='161.674' y1='76.3771' x2='154.474' y2='76.3771' stroke-width='0.699998' /></g><g partID='854174070'><line stroke-linecap='round' stroke='#404040' x1='154.474' y1='76.3771' x2='151.5' y2='76.1758' stroke-width='0.699998' /></g><g partID='854174090'><line stroke-linecap='round' stroke='#404040' x1='79.5008' y1='47.3754' x2='82.4741' y2='47.5771' stroke-width='0.699998' /></g><circle  fill="black" cx="79.5008" cy="47.3754" r="1.44" stroke-width="0" stroke="none" /><g partID='854174110'><line stroke-linecap='round' stroke='#404040' x1='82.4741' y1='47.5771' x2='82.4741' y2='61.9771' stroke-width='0.699998' /></g><g partID='854174130'><line stroke-linecap='round' stroke='#404040' x1='82.4741' y1='61.9771' x2='161.674' y2='61.9771' stroke-width='0.699998' /></g><g partID='854174150'><line stroke-linecap='round' stroke='#404040' x1='161.674' y1='61.9771' x2='161.674' y2='69.1771' stroke-width='0.699998' /></g><g partID='854174170'><line stroke-linecap='round' stroke='#404040' x1='161.674' y1='69.1771' x2='158.7' y2='76.1758' stroke-width='0.699998' /></g><circle  fill="black" cx="158.7" cy="76.1758" r="1.44" stroke-width="0" stroke="none" /><g partID='854174190'><line stroke-linecap='round' stroke='#404040' x1='79.5008' y1='47.3754' x2='79.5008' y2='47.3754' stroke-width='0.699998' /></g><circle  fill="black" cx="79.5008" cy="47.3754" r="1.44" stroke-width="0" stroke="none" /><g partID='854174270'><line stroke-linecap='round' stroke='#404040' x1='230.701' y1='32.9758' x2='233.674' y2='33.1771' stroke-width='0.699998' /></g><g partID='854174290'><line stroke-linecap='round' stroke='#404040' x1='233.674' y1='33.1771' x2='233.674' y2='47.5771' stroke-width='0.699998' /></g><g partID='854174310'><line stroke-linecap='round' stroke='#404040' x1='233.674' y1='47.5771' x2='168.874' y2='47.5771' stroke-width='0.699998' /></g><circle  fill="black" cx="168.874" cy="47.5771" r="1.44" stroke-width="0" stroke="none" /><g partID='854174330'><line stroke-linecap='round' stroke='#404040' x1='168.874' y1='47.5771' x2='168.874' y2='76.3771' stroke-width='0.699998' /></g><g partID='854174350'><line stroke-linecap='round' stroke='#404040' x1='168.874' y1='76.3771' x2='165.9' y2='76.1758' stroke-width='0.699998' /></g><g partID='854174370'><line stroke-linecap='round' stroke='#404040' x1='79.5008' y1='18.5752' x2='96.8741' y2='18.5752' stroke-width='0.699998' /></g><g partID='854174390'><line stroke-linecap='round' stroke='#404040' x1='96.8741' y1='18.5752' x2='96.8741' y2='47.5771' stroke-width='0.699998' /></g><g partID='854174430'><line stroke-linecap='round' stroke='#404040' x1='96.8741' y1='47.5771' x2='168.874' y2='47.5771' stroke-width='0.699998' /></g><g partID='854174470'><line stroke-linecap='round' stroke='#404040' x1='115.5' y1='104.976' x2='118.474' y2='105.177' stroke-width='0.699998' /></g><g partID='854174490'><line stroke-linecap='round' stroke='#404040' x1='118.474' y1='105.177' x2='68.0741' y2='105.177' stroke-width='0.699998' /></g><g partID='854174510'><line stroke-linecap='round' stroke='#404040' x1='68.0741' y1='105.177' x2='68.0741' y2='97.9771' stroke-width='0.699998' /></g><g partID='854174530'><line stroke-linecap='round' stroke='#404040' x1='68.0741' y1='97.9771' x2='50.7005' y2='97.7758' stroke-width='0.699998' /></g><circle  fill="black" cx="50.7005" cy="97.7758" r="1.44" stroke-width="0" stroke="none" /><g partID='854174550'><line stroke-linecap='round' stroke='#404040' x1='39.9002' y1='29.3758' x2='39.2741' y2='29.3758' stroke-width='0.699998' /></g><circle  fill="black" cx="39.9002" cy="29.3758" r="1.44" stroke-width="0" stroke="none" /><g partID='854174570'><line stroke-linecap='round' stroke='#404040' x1='39.2741' y1='29.3758' x2='39.2741' y2='61.9771' stroke-width='0.699998' /></g><g partID='854174610'><line stroke-linecap='round' stroke='#404040' x1='39.2741' y1='61.9771' x2='65.1005' y2='61.9771' stroke-width='0.699998' /></g><g partID='854174630'><line stroke-linecap='round' stroke='#404040' x1='65.1005' y1='61.9771' x2='50.7005' y2='97.7758' stroke-width='0.699998' /></g><circle  fill="black" cx="50.7005" cy="97.7758" r="1.44" stroke-width="0" stroke="none" /><g partID='854174710'><line stroke-linecap='round' stroke='#404040' x1='144.3' y1='11.3759' x2='144.3' y2='4.37712' stroke-width='0.699998' /></g><g partID='854174730'><line stroke-linecap='round' stroke='#404040' x1='144.3' y1='4.37712' x2='39.9002' y2='4.37712' stroke-width='0.699998' /></g><g partID='854174770'><line stroke-linecap='round' stroke='#404040' x1='39.9002' y1='4.37712' x2='39.9002' y2='29.3758' stroke-width='0.699998' /></g><circle  fill="black" cx="39.9002" cy="29.3758" r="1.44" stroke-width="0" stroke="none" /><g partID='854114490' id='partLabel'><g transform='translate(191.1,59.7758)' ><g font-size='5' font-style='normal' font-weight='normal' fill='#000000' font-family="'DroidSans'" id='schematicLabel' fill-opacity='1' stroke='none' ><text x='0' y='3.75'>U1</text></g></g></g><g partID='854114660' id='partLabel'><g transform='translate(175.677,26.126)' ><g transform='matrix(0,1,-1,0,0,0)'  ><g font-size='5' font-style='normal' font-weight='normal' fill='#000000' font-family="'DroidSans'" id='schematicLabel' fill-opacity='1' stroke='none' ><text x='0' y='3.75'>VCC1</text></g></g></g></g><g partID='854114800' id='partLabel'><g transform='translate(43.1404,51.726)' ><g transform='matrix(-1,0,0,-1,0,0)'  ><g font-size='5' font-style='normal' font-weight='normal' fill='#000000' font-family="'DroidSans'" id='schematicLabel' fill-opacity='1' stroke='none' ><text x='0' y='3.75'>C1</text><text x='0' y='8.75'>47&#xb5;F</text></g></g></g></g><g partID='854115020' id='partLabel'><g transform='translate(40.8,130.792)' ><g transform='matrix(-1,0,0,-1,0,0)'  ><g font-size='5' font-style='normal' font-weight='normal' fill='#000000' font-family="'DroidSans'" id='schematicLabel' fill-opacity='1' stroke='none' ><text x='0' y='3.75'>LED1</text><text x='0' y='8.75'>Red (633nm)</text></g></g></g></g><g partID='854115640' id='partLabel'><g transform='translate(245.451,4.27952)' ><g font-size='5' font-style='normal' font-weight='normal' fill='#000000' font-family="'DroidSans'" id='schematicLabel' fill-opacity='1' stroke='none' ><text x='0' y='3.75'>R1</text><text x='0' y='8.75'>10k&#x3a9;</text></g></g></g><g partID='854138270' id='partLabel'><g transform='translate(94.2507,18.6795)' ><g font-size='5' font-style='normal' font-weight='normal' fill='#000000' font-family="'DroidSans'" id='schematicLabel' fill-opacity='1' stroke='none' ><text x='0' y='3.75'>R2</text><text x='0' y='8.75'>10K</text><text x='0' y='13.75'>330&#x3a9;</text></g></g></g></svg>